<?xml version="1.0" encoding="utf-8"?>
<!-- Generator: Adobe Illustrator 15.0.0, SVG Export Plug-In . SVG Version: 6.00 Build 0)  -->
<!DOCTYPE svg PUBLIC "-//W3C//DTD SVG 1.1//EN" "http://www.w3.org/Graphics/SVG/1.1/DTD/svg11.dtd">
<svg version="1.1" id="Layer_1" xmlns="http://www.w3.org/2000/svg" xmlns:xlink="http://www.w3.org/1999/xlink" x="0px" y="0px"
	 width="822.755px" height="617.105px" viewBox="0 0 822.755 617.105" enable-background="new 0 0 822.755 617.105"
	 xml:space="preserve">
<g>
	<polygon fill="none" points="412.295,106.147 412.295,112.703 412.295,106.147 242.43,204.221 242.43,439.601 412.298,537.673 
		582.164,439.601 582.164,204.221 	"/>
	<polygon fill="#ED1C24" points="412.295,106.147 412.295,52.966 196.373,177.629 242.43,204.221 	"/>
	<polygon fill="#CC2028" points="582.164,204.221 628.222,177.629 412.295,52.966 412.295,106.147 	"/>
	<polygon fill="#CC2028" points="582.164,439.601 412.298,537.673 412.299,590.854 628.222,466.191 	"/>
	<polygon fill="#ED1C24" points="242.43,439.601 196.373,466.191 412.298,590.854 412.299,590.854 412.298,537.673 	"/>
</g>
<g>
	<polygon fill="#CC2028" points="628.222,177.629 582.164,204.221 582.164,228.703 628.222,245.542 	"/>
	<polygon fill="#CC2028" points="582.164,439.601 628.222,466.191 628.222,394.73 582.164,411.567 	"/>
	<polygon fill="#ED1C24" points="196.373,466.191 242.43,439.601 242.43,411.699 196.373,394.73 	"/>
	<polygon fill="#ED1C24" points="242.43,204.221 196.373,177.629 196.373,245.542 242.43,228.573 	"/>
</g>
<g>
	<polygon fill="#FFFFFF" points="408.878,121.382 304.34,182.053 412.301,136.565 412.301,119.395 	"/>
	<polygon fill="#E6E7E8" points="415.725,121.382 412.301,119.395 412.301,136.565 520.261,182.053 	"/>
</g>
<g>
	<polygon fill="#ED1C24" points="415.725,509.349 412.301,507.905 412.301,509.349 	"/>
	<polygon fill="#ED1C24" points="412.301,507.905 412.301,507.905 412.301,507.905 	"/>
	<polygon fill="#FFFFFF" points="408.878,509.349 412.301,507.905 304.34,462.417 408.878,523.089 412.301,525.076 412.301,509.349 
			"/>
	<polygon fill="#ED1C24" points="412.301,509.349 412.301,507.905 412.301,507.905 408.878,509.349 	"/>
	<polygon fill="#E6E7E8" points="412.301,507.905 412.301,507.905 415.725,509.349 412.301,509.349 412.301,525.076 
		415.725,523.089 520.261,462.417 	"/>
</g>
<g>
	<linearGradient id="SVGID_1_" gradientUnits="userSpaceOnUse" x1="46.9014" y1="273.3237" x2="46.9014" y2="370.2329">
		<stop  offset="0.5" style="stop-color:#FFFFFF"/>
		<stop  offset="0.5" style="stop-color:#E6E7E8"/>
	</linearGradient>
	<path fill="url(#SVGID_1_)" d="M36.372,273.324L0,370.232h19.491l7.657-20.581h39.505l7.657,20.581h19.492l-36.199-96.909H36.372z
		 M32.891,333.445l14.096-38.245l13.922,38.245H32.891z"/>
	<linearGradient id="SVGID_2_" gradientUnits="userSpaceOnUse" x1="234.6641" y1="273.4854" x2="234.6641" y2="370.2329">
		<stop  offset="0.5" style="stop-color:#FFFFFF"/>
		<stop  offset="0.5" style="stop-color:#E6E7E8"/>
	</linearGradient>
	<path fill="url(#SVGID_2_)" d="M256.157,328.26c2.436-1.622,7.657-6.481,9.224-8.59c2.088-2.916,3.132-6.32,3.132-9.884V295.85
		c0-3.403-1.044-6.97-3.132-9.886c-1.567-2.107-6.788-7.293-9.224-8.914c-3.481-2.269-8.353-3.564-12.53-3.564h-48.902v96.747
		h18.273v-38.408h16.707l23.32,38.408h21.579l-24.886-39.542C251.805,330.366,254.764,329.233,256.157,328.26z M243.626,315.619
		h-30.629V289.69h30.629c0.348,0,0.522,0,0.871,0c1.74,0.161,4.524,3.403,5.568,5.185c0.174,0.164,0.174,1.135,0.174,1.135v13.452
		c0,0.323-0.174,0.646-0.174,0.646C248.673,312.38,245.193,315.619,243.626,315.619z"/>
	<linearGradient id="SVGID_3_" gradientUnits="userSpaceOnUse" x1="413.814" y1="273.3237" x2="413.814" y2="370.2329">
		<stop  offset="0.5" style="stop-color:#FFFFFF"/>
		<stop  offset="0.5" style="stop-color:#E6E7E8"/>
	</linearGradient>
	<polygon fill="url(#SVGID_3_)" points="381.097,273.324 381.097,370.232 412.301,370.232 446.53,370.232 446.53,354.026 
		412.301,354.026 399.37,354.026 399.37,330.205 412.301,330.205 443.749,330.205 443.749,313.999 412.301,313.999 399.37,313.999 
		399.37,289.529 412.301,289.529 446.53,289.529 446.53,273.324 412.301,273.324 	"/>
	<linearGradient id="SVGID_4_" gradientUnits="userSpaceOnUse" x1="593.311" y1="273.3237" x2="593.311" y2="370.2329">
		<stop  offset="0.5" style="stop-color:#FFFFFF"/>
		<stop  offset="0.5" style="stop-color:#E6E7E8"/>
	</linearGradient>
	<polygon fill="url(#SVGID_4_)" points="611.845,338.47 576.17,273.324 556.504,273.324 556.504,370.232 574.779,370.232 
		574.779,305.896 610.801,370.232 630.118,370.232 630.118,273.324 611.845,273.324 	"/>
	<linearGradient id="SVGID_5_" gradientUnits="userSpaceOnUse" x1="775.855" y1="273.3237" x2="775.855" y2="370.2329">
		<stop  offset="0.5" style="stop-color:#FFFFFF"/>
		<stop  offset="0.5" style="stop-color:#E6E7E8"/>
	</linearGradient>
	<path fill="url(#SVGID_5_)" d="M786.556,273.324h-21.23l-36.372,96.909h19.492l7.656-20.581h39.505l7.657,20.581h19.491
		L786.556,273.324z M761.845,333.445l14.096-38.245l13.923,38.245H761.845z"/>
</g>
<g>
	<defs>
		<path id="SVGID_6_" d="M403.768,44.437L187.843,169.1L-11.483-7.826l298.813-141.171L403.768,44.437z M636.75,474.72
			L420.829,599.383l84.143,175.118l317.784-127.056L636.75,474.72z"/>
	</defs>
	<clipPath id="SVGID_7_">
		<use xlink:href="#SVGID_6_"  overflow="visible"/>
	</clipPath>
	<g clip-path="url(#SVGID_7_)">
		<path fill="#CC2028" d="M243.329,74.186l-12.278,8.251c0,0,281.059,418.291,315.664,469.781
			c34.603,51.498,57.155,58.53,57.155,58.53L243.329,74.186z"/>
		<path fill="#ED1C24" d="M571.278,535.718C537.127,484.896,255.61,65.933,255.61,65.933l-12.282,8.253L603.87,610.749
			C603.87,610.749,605.428,586.543,571.278,535.718z"/>
	</g>
	<g clip-path="url(#SVGID_7_)">
		<path fill="#CC2028" d="M203.03,14.211l-12.843,8.63c0,0,15.033,22.372,35.097,52.233l12.844-8.627L203.03,14.211z"/>
		<path fill="#ED1C24" d="M250.971,57.814c-20.063-29.86-35.099-52.234-35.099-52.234l-12.842,8.63l35.098,52.236L250.971,57.814z"
			/>
	</g>
	<g clip-path="url(#SVGID_7_)">
		
			<rect x="231.373" y="31.289" transform="matrix(0.558 0.8298 -0.8298 0.558 157.6836 -165.8246)" fill="#ED1C24" width="6.263" height="67.638"/>
	</g>
</g>
<g>
	<defs>
		<path id="SVGID_8_" d="M527.354-154.053L826.167-12.882L626.84,164.044L410.917,39.381L527.354-154.053z M-8.071,642.39
			l317.784,127.055l84.143-175.117L177.934,469.665L-8.071,642.39z"/>
	</defs>
	<clipPath id="SVGID_9_">
		<use xlink:href="#SVGID_8_"  overflow="visible"/>
	</clipPath>
	<g clip-path="url(#SVGID_9_)">
		<polygon fill="#ED1C24" points="583.346,83.07 584.158,83.641 574.11,98.019 257.116,551.692 256.063,551.464 212.959,613.152 
			237.978,522.646 251.957,544.915 571.441,87.685 564.315,60.123 601.997,6.195 611.629,43.459 610.979,43.522 		"/>
		<polyline fill="#CC2028" points="583.346,83.07 610.979,43.522 611.629,43.459 649.915,39.712 612.236,93.642 585.216,96.287 
			265.725,553.526 289.332,558.562 212.959,613.152 256.063,551.464 		"/>
	</g>
</g>
</svg>
